<svg xmlns="http://www.w3.org/2000/svg" xmlns:xlink="http://www.w3.org/1999/xlink" width="375" height="62" viewBox="0 0 375 62"><defs><filter id="a" x="154" y="10.895" width="35" height="33" filterUnits="userSpaceOnUse"><feOffset dy="4" input="SourceAlpha"/><feGaussianBlur stdDeviation="3" result="b"/><feFlood flood-color="#ff6969" flood-opacity="0.404"/><feComposite operator="in" in2="b"/><feComposite in="SourceGraphic"/></filter><linearGradient id="c" y1="1" x2="1" y2="1" gradientUnits="objectBoundingBox"><stop offset="0" stop-color="#20145f"/><stop offset="1" stop-color="#e71d73"/></linearGradient></defs><g transform="translate(0 2)"><path d="M0,0H375V60H0Z" fill="#fff"/><rect width="62" height="59" transform="translate(0 1)" fill="#fff"/><rect width="62" height="59" transform="translate(79 1)" fill="#fff"/><rect width="62" height="59" transform="translate(159 1)" fill="#fff"/><rect width="62" height="59" transform="translate(238 1)" fill="#fff"/><rect width="62" height="59" transform="translate(313 1)" fill="#fff"/><g transform="translate(15 43)"><text transform="translate(-1 5)" fill="#727c8e" font-size="9" font-family="OpenSans-SemiBold, Open Sans" font-weight="600" letter-spacing="0.016em"><tspan x="0" y="0">HOME</tspan></text><text transform="translate(173 5)" fill="#253aa5" font-size="9" font-family="OpenSans-SemiBold, Open Sans" font-weight="600" letter-spacing="0.016em"><tspan x="-17.947" y="0">VENDAS</tspan></text><text transform="translate(251 5)" fill="#727c8e" font-size="9" font-family="OpenSans-SemiBold, Open Sans" font-weight="600" letter-spacing="0.016em"><tspan x="-20.736" y="0">CLIENTES</tspan></text><text transform="translate(346 5)" fill="#253aa5" font-size="9" font-family="OpenSans-SemiBold, Open Sans" font-weight="600" letter-spacing="0.016em"><tspan x="-27.489" y="0">MENU</tspan></text><text transform="translate(96 5)" fill="#727c8e" font-size="9" font-family="OpenSans-SemiBold, Open Sans" font-weight="600" letter-spacing="0.016em"><tspan x="-17.384" y="0">PREÇOS</tspan></text></g><path d="M92.253,85.018l-8.838-7.746a.65.65,0,0,0-.857,0l-8.838,7.746a.65.65,0,0,0,.857.977l.684-.6V95.06a.65.65,0,0,0,.65.65H90.063a.65.65,0,0,0,.65-.65V85.4l.684.6a.65.65,0,0,0,.857-.977ZM81.487,94.411V89.057h3v5.353h-3Zm7.926-10.149V94.411H85.788v-6a.65.65,0,0,0-.65-.65h-4.3a.65.65,0,0,0-.65.65v6H76.562V84.261s0,0,0,0l6.426-5.632,6.426,5.632S89.413,84.259,89.413,84.261Z" transform="translate(-54.5 -66.216)" fill="#515c6f" stroke="#515c6f" stroke-width="0.2"/><path d="M20.76,19.6,17.117,15.96a7.365,7.365,0,1,0-1.157,1.157L19.6,20.76A.818.818,0,0,0,20.76,19.6Zm-9.4-2.512a5.727,5.727,0,1,1,5.727-5.727A5.727,5.727,0,0,1,11.364,17.091Z" transform="translate(97 7.895)" fill="#515c6f"/><path d="M91.406,81.632H77.982l-.773-1.818a.635.635,0,0,0-.439-.37l-2.49-.586a.635.635,0,0,0-.291,1.236l2.177.512,5.574,13.1a2.1,2.1,0,1,0,3.761.211h2.287a2.1,2.1,0,1,0,1.933-1.28l-7.051.01-.87-2.044h9.607a.635.635,0,0,0,.635-.635V82.267A.635.635,0,0,0,91.406,81.632Zm-1.684,12.28a.83.83,0,1,1-.83.83A.83.83,0,0,1,89.722,93.912Zm-6.151,0a.83.83,0,1,1-.83.83A.83.83,0,0,1,83.571,93.912Zm7.2-8.428H86.562a.635.635,0,0,0,0,1.27h4.209v2.582H81.26L78.522,82.9H90.771Z" transform="translate(104.501 -67.947)" fill="#253aa5" stroke="#515c6f" stroke-width="0.1"/><path d="M0,12H0ZM11.25,6h0ZM0,0H0Z" transform="translate(338.5 14.395)" fill="none" stroke="#253aa5" stroke-linecap="round" stroke-width="1.3"/><g transform="translate(163 13.895)"><g transform="matrix(1, 0, 0, 1, -163, -15.89)" filter="url(#a)"><rect width="17" height="15" rx="7" transform="translate(163 15.89)" fill="#ff6969"/></g><text transform="translate(6 11)" fill="#fff" font-size="10" font-family="NeusaNextStd-Bold, Neusa Next Std" font-weight="700"><tspan x="0" y="0">3</tspan></text></g><path d="M3.149,38.3a2.1,2.1,0,1,0-2.1-2.1A2.1,2.1,0,0,0,3.149,38.3Zm14.695,0a2.1,2.1,0,1,0-2.1-2.1A2.1,2.1,0,0,0,17.844,38.3Zm1.05,1.05h-2.1a2.093,2.093,0,0,0-1.479.61,4.8,4.8,0,0,1,2.463,3.588h2.165a1.049,1.049,0,0,0,1.05-1.05v-1.05A2.1,2.1,0,0,0,18.893,39.347Zm-8.4,0a3.674,3.674,0,1,0-3.674-3.674A3.672,3.672,0,0,0,10.5,39.347Zm2.519,1.05h-.272a5.072,5.072,0,0,1-4.494,0H7.977A3.78,3.78,0,0,0,4.2,44.176v.945a1.575,1.575,0,0,0,1.574,1.574H15.22a1.575,1.575,0,0,0,1.574-1.574v-.945A3.78,3.78,0,0,0,13.015,40.4Zm-7.338-.44a2.093,2.093,0,0,0-1.479-.61H2.1a2.1,2.1,0,0,0-2.1,2.1V42.5a1.049,1.049,0,0,0,1.05,1.05H3.211a4.81,4.81,0,0,1,2.467-3.588Z" transform="translate(254.922 -18.195)" fill="#515c6f"/></g><rect width="375" height="3" fill="url(#c)"/></svg>