<svg xmlns="http://www.w3.org/2000/svg" width="123.048" height="112.558" viewBox="0 0 123.048 112.558"><g transform="translate(-0.002 -21.833)"><g transform="translate(30.769 83.183)"><path d="M146.034,345.007a17.934,17.934,0,1,1,0-35.869h10.248a2.562,2.562,0,1,1,0,5.124H146.034a12.81,12.81,0,1,0,0,25.62,2.562,2.562,0,0,1,0,5.124Z" transform="translate(-128.1 -301.486)" fill="#fff"/><path d="M247.576,345.007H237.328a2.562,2.562,0,0,1,0-5.124h10.248a12.81,12.81,0,0,0,0-25.62,2.562,2.562,0,0,1,0-5.124,17.934,17.934,0,0,1,0,35.869Z" transform="translate(-209.146 -301.486)" fill="#fff"/><path d="M205.315,297.742a2.562,2.562,0,0,1-1.814-4.376l5.877-5.872-5.877-5.872A2.562,2.562,0,0,1,207.123,278l7.686,7.686a2.562,2.562,0,0,1,0,3.623l-7.686,7.686A2.562,2.562,0,0,1,205.315,297.742Z" transform="translate(-184.818 -277.28)" fill="#fff"/></g><path d="M245.009,425.742a2.561,2.561,0,0,1-1.814-.748l-7.686-7.686a2.562,2.562,0,0,1,0-3.623L243.2,406a2.562,2.562,0,0,1,3.623,3.623l-5.872,5.872,5.872,5.872a2.562,2.562,0,0,1-1.809,4.376Z" transform="translate(-178.372 -291.352)" fill="#fff"/><path d="M94.825,108.8a2.562,2.562,0,1,1,0-5.124,23.059,23.059,0,0,0,0-46.117,2.967,2.967,0,0,1-2.936-2.162,33.271,33.271,0,1,0-65.981,8.617q.059.455.131.909a2.562,2.562,0,0,1-.6,2.05,3.008,3.008,0,0,1-2.516.835,17.935,17.935,0,0,0,.164,35.869h0a2.562,2.562,0,1,1,0,5.124,23.058,23.058,0,0,1-2.449-45.989c-.077-.938-.113-1.824-.113-2.69A38.431,38.431,0,0,1,96.6,52.543,28.152,28.152,0,0,1,94.825,108.8Z" transform="translate(-0.005 -0.026)" fill="#fff"/><path d="M146.034,345.007a17.934,17.934,0,1,1,0-35.869h10.248a2.562,2.562,0,1,1,0,5.124H146.034a12.81,12.81,0,1,0,0,25.62,2.562,2.562,0,0,1,0,5.124Z" transform="translate(-97.331 -218.303)" fill="#fff"/><path d="M247.576,345.007H237.328a2.562,2.562,0,0,1,0-5.124h10.248a12.81,12.81,0,0,0,0-25.62,2.562,2.562,0,0,1,0-5.124,17.934,17.934,0,0,1,0,35.869Z" transform="translate(-178.377 -218.303)" fill="#fff"/><path d="M205.315,297.742a2.562,2.562,0,0,1-1.814-4.376l5.877-5.872-5.877-5.872A2.562,2.562,0,0,1,207.123,278l7.686,7.686a2.562,2.562,0,0,1,0,3.623l-7.686,7.686A2.562,2.562,0,0,1,205.315,297.742Z" transform="translate(-154.05 -194.097)" fill="#fff"/><path d="M245.009,425.742a2.561,2.561,0,0,1-1.814-.748l-7.686-7.686a2.562,2.562,0,0,1,0-3.623L243.2,406a2.562,2.562,0,0,1,3.623,3.623l-5.872,5.872,5.872,5.872a2.562,2.562,0,0,1-1.809,4.376Z" transform="translate(-178.372 -291.352)" fill="#fff"/></g></svg>