<svg xmlns="http://www.w3.org/2000/svg" width="20.232" height="20.232" viewBox="0 0 20.232 20.232">
  <path id="check-square" d="M18.064,52.232H2.168A2.168,2.168,0,0,1,0,50.064v-15.9A2.168,2.168,0,0,1,2.168,32h15.9a2.168,2.168,0,0,1,2.168,2.168v15.9A2.168,2.168,0,0,1,18.064,52.232ZM8.82,47.8l8.309-8.309a.723.723,0,0,0,0-1.022L16.108,37.45a.723.723,0,0,0-1.022,0L8.309,44.227,5.146,41.063a.723.723,0,0,0-1.022,0L3.1,42.085a.723.723,0,0,0,0,1.022l4.7,4.7a.723.723,0,0,0,1.022,0Z" transform="translate(0 -32)" fill="#253aa5"/>
</svg>
