<svg xmlns="http://www.w3.org/2000/svg" width="13.006" height="14.864" viewBox="0 0 13.006 14.864"><path d="M12.658,4.645H.348A.349.349,0,0,1,0,4.3V3.252A1.394,1.394,0,0,1,1.394,1.858H2.787V.348A.349.349,0,0,1,3.135,0H4.3a.349.349,0,0,1,.348.348v1.51H8.361V.348A.349.349,0,0,1,8.71,0H9.871a.349.349,0,0,1,.348.348v1.51h1.394a1.394,1.394,0,0,1,1.394,1.394V4.3A.349.349,0,0,1,12.658,4.645ZM.348,5.574h12.31a.349.349,0,0,1,.348.348v7.548a1.394,1.394,0,0,1-1.394,1.394H1.394A1.394,1.394,0,0,1,0,13.471V5.923A.349.349,0,0,1,.348,5.574ZM3.716,11.5a.349.349,0,0,0-.348-.348H2.206a.349.349,0,0,0-.348.348v1.161a.349.349,0,0,0,.348.348H3.368a.349.349,0,0,0,.348-.348Zm0-3.716a.349.349,0,0,0-.348-.348H2.206a.349.349,0,0,0-.348.348V8.942a.349.349,0,0,0,.348.348H3.368a.349.349,0,0,0,.348-.348ZM7.432,11.5a.349.349,0,0,0-.348-.348H5.923a.349.349,0,0,0-.348.348v1.161a.349.349,0,0,0,.348.348H7.084a.349.349,0,0,0,.348-.348Zm0-3.716a.349.349,0,0,0-.348-.348H5.923a.349.349,0,0,0-.348.348V8.942a.349.349,0,0,0,.348.348H7.084a.349.349,0,0,0,.348-.348ZM11.148,11.5a.349.349,0,0,0-.348-.348H9.639a.349.349,0,0,0-.348.348v1.161a.349.349,0,0,0,.348.348H10.8a.349.349,0,0,0,.348-.348Zm0-3.716a.349.349,0,0,0-.348-.348H9.639a.349.349,0,0,0-.348.348V8.942a.349.349,0,0,0,.348.348H10.8a.349.349,0,0,0,.348-.348Z" fill="#727c8e"/></svg>