<svg xmlns="http://www.w3.org/2000/svg" width="23.905" height="20.917" viewBox="0 0 23.905 20.917">
  <path id="camera" d="M23.905,37.229V50.676a2.242,2.242,0,0,1-2.241,2.241H2.241A2.242,2.242,0,0,1,0,50.676V37.229a2.242,2.242,0,0,1,2.241-2.241H6.35l.574-1.536A2.238,2.238,0,0,1,9.02,32h5.86a2.238,2.238,0,0,1,2.1,1.452l.579,1.536h4.109A2.242,2.242,0,0,1,23.905,37.229Zm-6.35,6.723a5.6,5.6,0,1,0-5.6,5.6A5.607,5.607,0,0,0,17.555,43.953Zm-1.494,0a4.109,4.109,0,1,1-4.109-4.109A4.115,4.115,0,0,1,16.061,43.953Z" transform="translate(0 -32)" fill="#253aa5"/>
</svg>
