<svg xmlns="http://www.w3.org/2000/svg" width="10.644" height="12.164" viewBox="0 0 10.644 12.164"><path d="M11.11,2.643H7.942V1.629A1.017,1.017,0,0,0,6.928.615H5.408A1.017,1.017,0,0,0,4.394,1.629V2.643H1.226a.39.39,0,0,0-.38.38v.76a.39.39,0,0,0,.38.38H11.11a.39.39,0,0,0,.38-.38v-.76A.39.39,0,0,0,11.11,2.643Zm-5.7-.76a.239.239,0,0,1,.253-.253H6.675a.239.239,0,0,1,.253.253v.76H5.408ZM10.1,5.177H2.24a.39.39,0,0,0-.38.38v5.955A1.255,1.255,0,0,0,3.127,12.78H9.209a1.255,1.255,0,0,0,1.267-1.267V5.557A.39.39,0,0,0,10.1,5.177ZM5.408,10.752a.239.239,0,0,1-.253.253H4.648a.239.239,0,0,1-.253-.253V7.2a.239.239,0,0,1,.253-.253h.507a.239.239,0,0,1,.253.253Zm2.534,0a.239.239,0,0,1-.253.253H7.182a.239.239,0,0,1-.253-.253V7.2a.239.239,0,0,1,.253-.253h.507a.239.239,0,0,1,.253.253Z" transform="translate(-0.846 -0.615)" fill="#fd6969"/></svg>