<svg xmlns="http://www.w3.org/2000/svg" width="11.173" height="11.173" viewBox="0 0 11.173 11.173"><g transform="translate(-0.615 -0.615)"><path d="M2.347,7.935,4.422,10.01a.225.225,0,0,0,.326,0l5.175-5.2a.225.225,0,0,0,0-.326L7.872,2.434a.225.225,0,0,0-.326,0l-5.2,5.2a.2.2,0,0,0,0,.3Zm6.2-6.457a.225.225,0,0,0,0,.326L10.6,3.856a.225.225,0,0,0,.326,0l.583-.583a.874.874,0,0,0,0-1.282L10.413.9A.929.929,0,0,0,9.084.9l-.536.583ZM.622,11.386a.339.339,0,0,0,.4.4l2.541-.606a.451.451,0,0,0,.21-.117l.047-.047a.249.249,0,0,0-.023-.3l-2.1-2.1a.249.249,0,0,0-.3-.023l-.047.047a.476.476,0,0,0-.117.21L.622,11.386Z" transform="translate(0)" fill="#1170d2"/></g></svg>