<svg xmlns="http://www.w3.org/2000/svg" width="42" height="42" viewBox="0 0 42 42"><g transform="translate(-122 -230)"><g transform="translate(122 230)" fill="#fff" stroke="#fd6969" stroke-width="1"><rect width="42" height="42" rx="4" stroke="none"/><rect x="0.5" y="0.5" width="41" height="41" rx="3.5" fill="none"/></g><path d="M33.482,12a9.482,9.482,0,1,0,9.482,9.482A9.516,9.516,0,0,0,33.482,12Zm0,4.784a1.2,1.2,0,1,1-1.2,1.2,1.168,1.168,0,0,1,1.2-1.2Zm1.965,8.286a.391.391,0,0,1-.427.342H31.945c-.256,0-.427-.085-.427-.342V24.3a.4.4,0,0,1,.427-.427.367.367,0,0,0,.342-.342V21.909c0-.171-.171-.427-.342-.427-.256,0-.427-.085-.427-.342v-.769a.4.4,0,0,1,.427-.427h2.307a.4.4,0,0,1,.427.427v3.161a.367.367,0,0,0,.342.342.4.4,0,0,1,.427.427v.769Z" transform="translate(109.518 230.018)" fill="#fd6969" fill-rule="evenodd"/></g></svg>