<svg xmlns="http://www.w3.org/2000/svg" width="22.971" height="17.229" viewBox="0 0 22.971 17.229">
  <path id="image" d="M20.818,81.229H2.154A2.154,2.154,0,0,1,0,79.075V66.154A2.154,2.154,0,0,1,2.154,64H20.818a2.154,2.154,0,0,1,2.154,2.154V79.075A2.154,2.154,0,0,1,20.818,81.229ZM5.025,66.513a2.513,2.513,0,1,0,2.513,2.513A2.513,2.513,0,0,0,5.025,66.513ZM2.871,78.357H20.1V73.332l-3.926-3.926a.538.538,0,0,0-.761,0l-6.08,6.08L6.841,72.995a.538.538,0,0,0-.761,0L2.871,76.2Z" transform="translate(0 -64)" fill="#1170d2"/>
</svg>
