<svg xmlns="http://www.w3.org/2000/svg" width="17.825" height="13.256" viewBox="0 0 17.825 13.256"><g transform="translate(17.825 55.555) rotate(180)"><path d="M2.766,109.052h9.387a.81.81,0,0,0,0-1.62H2.766l1.048-1.048a.81.81,0,1,0-1.146-1.146L.238,107.668c-.019.019-.037.038-.053.059l-.012.016c-.012.016-.025.031-.036.048l-.009.015c-.011.017-.022.035-.032.053l-.005.011c-.01.02-.02.04-.029.061l0,.008c-.009.022-.017.044-.024.067l0,.009c-.007.022-.013.045-.017.068,0,.007,0,.014,0,.021s-.007.038-.009.058a.8.8,0,0,0,0,.162c0,.02.005.039.009.058s0,.014,0,.02c0,.023.011.046.017.069l0,.008c.007.023.015.045.024.067l0,.007c.009.021.019.041.029.061l.005.011c.01.018.021.036.032.054l.009.014c.011.017.023.033.036.048l.012.015c.017.02.035.04.053.059l2.431,2.431A.81.81,0,1,0,3.814,110.1Z" transform="translate(0 -59.315)" fill="#fd6969"/><path d="M108.487,42.3a6.623,6.623,0,0,0-5.5,2.935.81.81,0,0,0,1.345.9,5.007,5.007,0,1,1,.007,5.588.81.81,0,1,0-1.343.907,6.628,6.628,0,1,0,5.5-10.334Z" transform="translate(-97.29 0)" fill="#fd6969"/></g></svg>