<svg xmlns="http://www.w3.org/2000/svg" width="31.902" height="22.331" viewBox="0 0 31.902 22.331">
  <path id="money-check-alt" d="M30.307,32H1.6A1.6,1.6,0,0,0,0,33.6V52.736a1.6,1.6,0,0,0,1.6,1.6H30.307a1.6,1.6,0,0,0,1.6-1.6V33.6A1.6,1.6,0,0,0,30.307,32ZM8.773,46.749v.8a.4.4,0,0,1-.4.4h-.8a.4.4,0,0,1-.4-.4V46.74a2.854,2.854,0,0,1-1.564-.566.4.4,0,0,1-.028-.605l.586-.559a.409.409,0,0,1,.5-.036,1.2,1.2,0,0,0,.639.185h1.4A.627.627,0,0,0,9.3,44.5a.651.651,0,0,0-.437-.635l-2.243-.673A2.256,2.256,0,0,1,5.05,41.032a2.22,2.22,0,0,1,2.127-2.247v-.8a.4.4,0,0,1,.4-.4h.8a.4.4,0,0,1,.4.4v.812a2.85,2.85,0,0,1,1.564.566.4.4,0,0,1,.028.605l-.586.559a.409.409,0,0,1-.5.036,1.2,1.2,0,0,0-.639-.185h-1.4a.627.627,0,0,0-.588.657.651.651,0,0,0,.437.635l2.243.673A2.256,2.256,0,0,1,10.9,44.5,2.219,2.219,0,0,1,8.773,46.749Zm11.963-.792a.4.4,0,0,1-.4.4H14.755a.4.4,0,0,1-.4-.4v-.8a.4.4,0,0,1,.4-.4h5.583a.4.4,0,0,1,.4.4Zm7.975,0a.4.4,0,0,1-.4.4H24.325a.4.4,0,0,1-.4-.4v-.8a.4.4,0,0,1,.4-.4h3.988a.4.4,0,0,1,.4.4Zm0-4.785a.4.4,0,0,1-.4.4H14.755a.4.4,0,0,1-.4-.4v-.8a.4.4,0,0,1,.4-.4H28.313a.4.4,0,0,1,.4.4Z" transform="translate(0 -32)" fill="#fff"/>
</svg>
