<svg xmlns="http://www.w3.org/2000/svg" width="22.952" height="22.952" viewBox="0 0 22.952 22.952"><path d="M19.476,8A11.476,11.476,0,1,0,30.952,19.476,11.474,11.474,0,0,0,19.476,8ZM26.14,20.772a.557.557,0,0,1-.555.555H21.327v4.257a.557.557,0,0,1-.555.555H18.18a.557.557,0,0,1-.555-.555V21.327H13.368a.557.557,0,0,1-.555-.555V18.18a.557.557,0,0,1,.555-.555h4.257V13.368a.557.557,0,0,1,.555-.555h2.591a.557.557,0,0,1,.555.555v4.257h4.257a.557.557,0,0,1,.555.555Z" transform="translate(-8 -8)" fill="#fff"/></svg>