<svg xmlns="http://www.w3.org/2000/svg" width="13.972" height="13.926" viewBox="0 0 13.972 13.926"><g transform="translate(-0.615 -0.615)"><path d="M5.838,10.915a.446.446,0,0,0-.435-.435H1.051a.446.446,0,0,0-.435.435v3.191a.446.446,0,0,0,.435.435H5.4a.446.446,0,0,0,.435-.435Zm-3.452-4.5H.964c-.29,0-.435.261-.261.406L3.023,9.232a.349.349,0,0,0,.406,0L5.75,6.824c.174-.174.029-.406-.261-.406H4.126A3.093,3.093,0,0,1,7,3.517V1.776A4.558,4.558,0,0,0,2.385,6.418Zm9.777-.493a.349.349,0,0,0-.406,0L9.435,8.333c-.174.174-.029.406.261.406h1.393a2.764,2.764,0,0,1-2.93,2.9v1.741a4.607,4.607,0,0,0,4.671-4.642h1.422c.29,0,.435-.261.261-.406l-2.35-2.408Zm2.379-4.874a.446.446,0,0,0-.435-.435H9.754a.446.446,0,0,0-.435.435V4.242a.446.446,0,0,0,.435.435h4.352a.446.446,0,0,0,.435-.435Z" fill="#1170d2"/></g></svg>