<svg xmlns="http://www.w3.org/2000/svg" width="18.445" height="18.402" viewBox="0 0 18.445 18.402"><path d="M18.008.231H16.756a.642.642,0,0,0-.626.626V3.778c0,.376-.209.542-.5.292a1.978,1.978,0,0,0-.417-.417A8.78,8.78,0,0,0,7.2,1.274,8.187,8.187,0,0,0,4.28,2.484a8.832,8.832,0,0,0-4.048,7.3,8.756,8.756,0,0,0,8.763,8.846,8.84,8.84,0,0,0,5.717-2.086.621.621,0,0,0,.042-.918l-.876-.876a.634.634,0,0,0-.835-.042,6.325,6.325,0,0,1-5.591,1.252,5.834,5.834,0,0,1-1.586-.668A6.323,6.323,0,0,1,3.028,8.326,5.834,5.834,0,0,1,3.7,6.74,6.155,6.155,0,0,1,9.078,3.569,6.253,6.253,0,0,1,13.5,5.4a2.2,2.2,0,0,1,.5.584c.125.334-.167.5-.542.5H10.539a.642.642,0,0,0-.626.626V8.409a.57.57,0,0,0,.584.584h7.636a.552.552,0,0,0,.542-.542V.857a.713.713,0,0,0-.668-.626Z" transform="translate(-0.231 -0.231)" fill="#727c8e"/></svg>