<svg xmlns="http://www.w3.org/2000/svg" width="20.993" height="14.695" viewBox="0 0 20.993 14.695"><path d="M3.149,38.3a2.1,2.1,0,1,0-2.1-2.1A2.1,2.1,0,0,0,3.149,38.3Zm14.695,0a2.1,2.1,0,1,0-2.1-2.1A2.1,2.1,0,0,0,17.844,38.3Zm1.05,1.05h-2.1a2.093,2.093,0,0,0-1.479.61,4.8,4.8,0,0,1,2.463,3.588h2.165a1.049,1.049,0,0,0,1.05-1.05v-1.05A2.1,2.1,0,0,0,18.893,39.347Zm-8.4,0a3.674,3.674,0,1,0-3.674-3.674A3.672,3.672,0,0,0,10.5,39.347Zm2.519,1.05h-.272a5.072,5.072,0,0,1-4.494,0H7.977A3.78,3.78,0,0,0,4.2,44.176v.945a1.575,1.575,0,0,0,1.574,1.574H15.22a1.575,1.575,0,0,0,1.574-1.574v-.945A3.78,3.78,0,0,0,13.015,40.4Zm-7.338-.44a2.093,2.093,0,0,0-1.479-.61H2.1a2.1,2.1,0,0,0-2.1,2.1V42.5a1.049,1.049,0,0,0,1.05,1.05H3.211a4.81,4.81,0,0,1,2.467-3.588Z" transform="translate(0 -32)" fill="#515c6f"/></svg>