<svg xmlns="http://www.w3.org/2000/svg" xmlns:xlink="http://www.w3.org/1999/xlink" width="512" height="512" viewBox="0 0 512 512"><defs><linearGradient id="a" y1="0.5" x2="1" y2="0.5" gradientUnits="objectBoundingBox"><stop offset="0" stop-color="#449b23"/><stop offset="0.35" stop-color="#449b23"/><stop offset="1" stop-color="#e3d400"/></linearGradient><linearGradient id="b" x1="0.5" y1="1" x2="0.5" gradientUnits="objectBoundingBox"><stop offset="0" stop-color="#161b4b"/><stop offset="1" stop-color="#db0060"/></linearGradient></defs><g transform="translate(1342.511 -61.565)"><g transform="translate(-1342.511 61.565)" fill="#fff" stroke="#ccc" stroke-width="1"><rect width="512" height="512" rx="117" stroke="none"/><rect x="0.5" y="0.5" width="511" height="511" rx="116.5" fill="none"/></g><g transform="translate(-1229.048 185.157)"><path d="M359.68,298.861l-26.069,19.156-.038-.033c-7.212,5.166-17.039,8.376-27.908,8.376-16.552,0-30.69-7.413-36.783-17.937a105.472,105.472,0,0,0,30.729,34.569c53.6,39.473,143.73,40.285,198.564,0l60.066-44.134c-27.412-20.142-63.345-30.209-99.278-30.209S387.1,278.719,359.68,298.861" transform="translate(-258.296 -108.169)" fill="url(#a)"/><path d="M257.3,255.107c0,54.182,57.051,98.112,129.326,102.331,0,0,.586.048.885.064,3.426.187,10.19.2,10.19.2a182.624,182.624,0,0,0,50.491-6.516,50.672,50.672,0,0,1-10.472,1.273c-22.1,0-40.017-13.162-40.017-29.4h0v-126.9c0-56.969-62.859-103.15-140.4-103.15Z" transform="translate(-257.296 -93.012)" fill="url(#b)"/><path d="M438.716,368.562c-22.1,0-40.016-13.163-40.016-29.4h0V279.566a148.4,148.4,0,0,0-39.015,20.24l-26.071,19.153-.038-.035c-7.212,5.17-17.038,8.377-27.908,8.377-16.552,0-30.69-7.409-36.783-17.937a105.337,105.337,0,0,0,30.256,34.2c.223.165.436.333.66.5.775.569,1.578,1.1,2.366,1.656a155.032,155.032,0,0,0,46.489,21.391l.422.117c1.7.47,3.419.908,5.15,1.33.621.153,1.245.3,1.869.443q1.948.455,3.918.862c1.082.223,2.161.438,3.248.645q1.373.262,2.761.505,2.2.383,4.412.71c.6.091,1.2.182,1.8.267q2.631.364,5.274.658c.379.045.758.085,1.139.127q2.891.306,5.794.518c.263.022.527.043.793.06,3.215.228,6.441.351,9.671.417,2.111.029,3.791.034,3.791.034,2.926.012,5.845-.061,8.764-.17a187.7,187.7,0,0,0,39.567-5.922,45.715,45.715,0,0,1-8.311.849" transform="translate(-258.296 -109.111)" fill="#442618"/></g></g></svg>