<svg xmlns="http://www.w3.org/2000/svg" xmlns:xlink="http://www.w3.org/1999/xlink" width="75.6" height="65.818" viewBox="0 0 75.6 65.818"><defs><linearGradient id="a" y1="0.5" x2="1" y2="0.5" gradientUnits="objectBoundingBox"><stop offset="0" stop-color="#449b23"/><stop offset="0.35" stop-color="#449b23"/><stop offset="1" stop-color="#e3d400"/></linearGradient><linearGradient id="b" x1="0.5" y1="1" x2="0.5" gradientUnits="objectBoundingBox"><stop offset="0" stop-color="#161b4b"/><stop offset="1" stop-color="#db0060"/></linearGradient></defs><g transform="translate(-149.7 -589.182)"><g transform="translate(149.7 589.182)"><g transform="translate(-111.33 -93.012)"><path d="M281,272.682l-3.478,2.556,0,0a6.428,6.428,0,0,1-3.723,1.117,5.619,5.619,0,0,1-4.907-2.393,14.072,14.072,0,0,0,4.1,4.612c7.151,5.266,19.175,5.374,26.49,0l8.013-5.888a23.779,23.779,0,0,0-26.489,0" transform="translate(-138.348 -154.231)" fill="url(#a)"/><path d="M257.3,114.637c0,7.228,7.611,13.089,17.253,13.652l.118.009c.457.025,1.359.027,1.359.027a24.363,24.363,0,0,0,6.736-.869,6.757,6.757,0,0,1-1.4.17c-2.948,0-5.339-1.756-5.339-3.922h0V106.773c0-7.6-8.386-13.761-18.731-13.761Z" transform="translate(-128.173)" fill="url(#b)"/><path d="M291.54,291.439c-2.948,0-5.339-1.756-5.339-3.923h0v-7.95a19.8,19.8,0,0,0-5.2,2.7l-3.478,2.555,0,0a6.423,6.423,0,0,1-3.723,1.118,5.617,5.617,0,0,1-4.907-2.393,14.054,14.054,0,0,0,4.036,4.563l.088.066c.1.076.211.147.316.221a20.683,20.683,0,0,0,6.2,2.854l.056.016c.227.063.456.121.687.177l.249.059q.26.061.523.115c.144.03.288.059.433.086q.183.035.368.067.293.051.589.095l.24.036q.351.048.7.088l.152.017q.385.041.773.069l.106.008c.429.03.859.047,1.29.056.282,0,.506,0,.506,0,.39,0,.78-.008,1.169-.023a25.043,25.043,0,0,0,5.279-.79,6.1,6.1,0,0,1-1.109.113" transform="translate(-138.348 -163.814)" fill="#442618"/><path d="M112.383,449.638s-1.053,0-1.053-.506v-6.678s1.053,0,1.053.506v5.981h3.108a2.237,2.237,0,0,0,1.078-.152c0,.3-.112.85-.626.85Z" transform="translate(0 -306.847)" fill="#161615"/><path d="M320.38,447.178l-.99-2.53a9.955,9.955,0,0,0-.815-1.832,1.405,1.405,0,0,1,.326-.03c1,0,1.254.91,1.554,1.67l1.015,2.56a4.88,4.88,0,0,0,1.128,1.872,4.88,4.88,0,0,0,1.128-1.872l1.015-2.56c.3-.759.551-1.67,1.554-1.67a1.4,1.4,0,0,1,.326.03,9.964,9.964,0,0,0-.815,1.832l-.99,2.53A6.1,6.1,0,0,1,322.6,450.1a6.1,6.1,0,0,1-2.218-2.924" transform="translate(-181.983 -307.139)" fill="#161615"/><path d="M211.789,445.712l.99,2.53a9.954,9.954,0,0,0,.815,1.832,1.417,1.417,0,0,1-.326.03c-1,0-1.254-.91-1.554-1.669l-1.015-2.56A4.879,4.879,0,0,0,209.57,444a4.879,4.879,0,0,0-1.128,1.872l-1.015,2.56c-.3.759-.551,1.669-1.554,1.669a1.412,1.412,0,0,1-.326-.03,9.953,9.953,0,0,0,.815-1.832l.99-2.53a6.1,6.1,0,0,1,2.218-2.924,6.1,6.1,0,0,1,2.218,2.924" transform="translate(-82.732 -307.14)" fill="#161615"/><path d="M449.367,447.366c0,1.406-1.1,2.246-3.46,2.246s-3.46-.84-3.46-2.246v-2.834c0-1.406,1.09-2.246,3.46-2.246s3.46.84,3.46,2.246Zm-1.053-2.7c0-1.053-.389-1.68-2.419-1.68-2.005,0-2.394.627-2.394,1.68v2.57c0,1.052.389,1.68,2.394,1.68,2.03,0,2.419-.627,2.419-1.68Z" transform="translate(-290.757 -306.7)" fill="#161615"/><path d="M569.01,447.069c1.73.546,2.444,2.6,3.059,3.349a2.01,2.01,0,0,1-.364.031,1.415,1.415,0,0,1-1.216-.577c-.99-1.488-1.454-2.57-3.422-2.773v3.37s-1.053-.01-1.053-.506v-6.678H568.6c1.716,0,2.958.435,2.958,1.71v.3c0,1.143-1.066,1.771-2.545,1.771m-1.943-3.086v2.449H568.7c1.341,0,1.8-.445,1.8-1.285,0-.86-.614-1.164-1.9-1.164Z" transform="translate(-399.261 -307.577)" fill="#161615"/><path d="M681.693,447.366c0,1.406-1.1,2.246-3.459,2.246s-3.46-.84-3.46-2.246v-2.834c0-1.406,1.09-2.246,3.46-2.246s3.459.84,3.459,2.246Zm-1.053-2.7c0-1.053-.389-1.68-2.419-1.68-2.005,0-2.394.627-2.394,1.68v2.57c0,1.052.389,1.68,2.394,1.68,2.03,0,2.419-.627,2.419-1.68Z" transform="translate(-494.763 -306.7)" fill="#161615"/></g></g><text transform="translate(161 652)" fill="#ccc" font-size="10" font-family="SalesforceSans-Regular, Salesforce Sans"><tspan x="0" y="0">Powered by</tspan></text></g></svg>