<svg xmlns="http://www.w3.org/2000/svg" xmlns:xlink="http://www.w3.org/1999/xlink" width="47.264" height="11.824" viewBox="0 0 47.264 11.824"><defs><linearGradient id="a" y1="1" x2="1" y2="1" gradientUnits="objectBoundingBox"><stop offset="0" stop-color="#86093b"/><stop offset="1" stop-color="#f70e6b"/></linearGradient></defs><path d="M2.944-9.968V-6.4H4.816a2.253,2.253,0,0,0,1.648-.48A1.973,1.973,0,0,0,6.928-8.3a1.445,1.445,0,0,0-.544-1.312,3.192,3.192,0,0,0-1.7-.352Zm0,4.912v3.712H4.688A3.2,3.2,0,0,0,6.52-1.752,1.569,1.569,0,0,0,7.088-3.12a1.87,1.87,0,0,0-.536-1.432,2.482,2.482,0,0,0-1.736-.5ZM1.2-11.312H4.688a8.339,8.339,0,0,1,1.6.144,3.735,3.735,0,0,1,1.264.472,2.327,2.327,0,0,1,.824.864,2.7,2.7,0,0,1,.3,1.32v.448a2.854,2.854,0,0,1-.36,1.424,2.11,2.11,0,0,1-.936.912,2.309,2.309,0,0,1,1.056.944,2.771,2.771,0,0,1,.4,1.472v.432a2.616,2.616,0,0,1-.3,1.3,2.522,2.522,0,0,1-.848.9,3.95,3.95,0,0,1-1.3.52A7.835,7.835,0,0,1,4.688,0H2.72a3.24,3.24,0,0,1-.768-.112,1.391,1.391,0,0,1-.52-.272A.648.648,0,0,1,1.2-.912ZM12.656-9.968v3.584h1.872a2.279,2.279,0,0,0,1.648-.472,1.944,1.944,0,0,0,.464-1.416A1.488,1.488,0,0,0,16.1-9.6a3.078,3.078,0,0,0-1.7-.368Zm5.728,1.936a2.97,2.97,0,0,1-.232,1.192,2.578,2.578,0,0,1-.64.9,2.866,2.866,0,0,1-.968.568,3.64,3.64,0,0,1-1.232.2,4.049,4.049,0,0,1,1.344,1.056,10.008,10.008,0,0,1,.992,1.424q.432.752.768,1.488A8.534,8.534,0,0,0,19.088.032a1.592,1.592,0,0,1-.24.048,2.288,2.288,0,0,1-.48.048A3.124,3.124,0,0,1,17.944.1a1.553,1.553,0,0,1-.464-.144,2.288,2.288,0,0,1-.456-.3,1.518,1.518,0,0,1-.384-.5q-.4-.736-.752-1.424A8.009,8.009,0,0,0,15.1-3.52a4.307,4.307,0,0,0-1.016-.952,4.006,4.006,0,0,0-1.432-.568V.16a4.206,4.206,0,0,1-.88-.112,1.757,1.757,0,0,1-.592-.272.612.612,0,0,1-.272-.528v-10.56H14.4a8.339,8.339,0,0,1,1.6.144,3.847,3.847,0,0,1,1.264.464,2.25,2.25,0,0,1,.824.864,2.746,2.746,0,0,1,.3,1.328Zm9.28.4A4.621,4.621,0,0,0,27.552-8.7a1.657,1.657,0,0,0-.424-.792,2.052,2.052,0,0,0-.88-.5,5.124,5.124,0,0,0-1.48-.176,4.889,4.889,0,0,0-1.448.176,2.052,2.052,0,0,0-.864.5,1.657,1.657,0,0,0-.424.792,4.621,4.621,0,0,0-.112,1.064V-3.68a4.621,4.621,0,0,0,.112,1.064,1.657,1.657,0,0,0,.424.792,2.052,2.052,0,0,0,.864.5,4.889,4.889,0,0,0,1.448.176,5.124,5.124,0,0,0,1.48-.176,2.052,2.052,0,0,0,.88-.5,1.657,1.657,0,0,0,.424-.792,4.621,4.621,0,0,0,.112-1.064Zm1.744,4.16A3.367,3.367,0,0,1,28.28-.784a5.252,5.252,0,0,1-3.5.976A5.218,5.218,0,0,1,21.3-.784a3.379,3.379,0,0,1-1.12-2.688V-7.84a3.379,3.379,0,0,1,1.12-2.688,5.218,5.218,0,0,1,3.488-.976,5.252,5.252,0,0,1,3.5.976A3.367,3.367,0,0,1,29.408-7.84Zm6.064-6.5V.16a4.206,4.206,0,0,1-.88-.112A1.849,1.849,0,0,1,34-.216a.607.607,0,0,1-.272-.536V-9.968H31.472a1.288,1.288,0,0,1-.688-.16,1.2,1.2,0,0,1-.4-.4,1.38,1.38,0,0,1-.184-.52,3.693,3.693,0,0,1-.04-.52,2.111,2.111,0,0,0,.352.128,3.789,3.789,0,0,0,.48.088,5.757,5.757,0,0,0,.736.04H37.5a5.566,5.566,0,0,0,.728-.04,4.625,4.625,0,0,0,.488-.088,2.864,2.864,0,0,0,.368-.128,3.09,3.09,0,0,1-.048.52,1.592,1.592,0,0,1-.184.52,1.105,1.105,0,0,1-.4.4,1.331,1.331,0,0,1-.7.16Zm7.76.544a7.543,7.543,0,0,0-.472.856A13.121,13.121,0,0,0,42-6.528l-.528,1.776h3.52l-.528-1.776q-.208-.672-.424-1.2t-.392-.912Q43.44-9.072,43.232-9.424Zm0-2.208q.032.032.344.3a5.7,5.7,0,0,1,.744.816,11.054,11.054,0,0,1,.92,1.432,11.769,11.769,0,0,1,.888,2.144q.32,1.056.656,2.088t.672,2.088q.3.96.544,1.7A4.629,4.629,0,0,0,48.464,0q-.1.032-.208.064a1.86,1.86,0,0,1-.448.048,1.5,1.5,0,0,1-.856-.232,2.09,2.09,0,0,1-.584-.6,3.563,3.563,0,0,1-.392-.824q-.152-.456-.3-.9l-.288-.944h-4.32l-.288.944q-.144.448-.3.9A3.563,3.563,0,0,1,40.1-.72a2.09,2.09,0,0,1-.584.6,1.5,1.5,0,0,1-.856.232,1.86,1.86,0,0,1-.448-.048Q38.1.032,38,0a4.629,4.629,0,0,0,.464-1.072q.24-.736.544-1.7l.664-2.088.664-2.088a11.77,11.77,0,0,1,.888-2.144,11.054,11.054,0,0,1,.92-1.432,6.069,6.069,0,0,1,.736-.816Q43.184-11.6,43.232-11.632Z" transform="translate(-1.2 11.632)" fill="url(#a)"/></svg>